# xmcd
#
# Track frame offsets:
#	150
#	14817
#	29048
#	41445
#
# Disc length: 777 seconds
#
# Revision: 0
# Processed by: cddbd v1.5.2PL0 Copyright (c) Steve Scherf et al.
# Submitted via: audiograbber 1.83.01
#
DISCID=31030704
DTITLE=The Voxys  - Demo
DYEAR=2008
DGENRE=Rock
TTITLE0=Sixth Floor
TTITLE1=Uncle's Gaff
TTITLE2=Bang Out of Order
TTITLE3=Dirty Protest
EXTD=
EXTT0=
EXTT1=
EXTT2=
EXTT3=
PLAYORDER=
